<svg xmlns="http://www.w3.org/2000/svg" width="900" height="520" viewBox="0 0 900 520">
<rect width="100%" height="100%" fill="white"/><text x="450" y="30" text-anchor="middle" font-family="sans-serif" font-size="20">Temporal-filter trade-off</text>
<line x1="70" y1="450" x2="830" y2="450" stroke="#111"/><line x1="70" y1="70" x2="70" y2="450" stroke="#111"/>
<text x="450" y="502" text-anchor="middle" font-family="sans-serif">False triggers</text>
<text x="18" y="260" text-anchor="middle" transform="rotate(-90 18 260)" font-family="sans-serif">First-alert delay (video seconds)</text>
<circle cx="70.0" cy="450.0" r="16" fill="#2563eb" fill-opacity="0.45"><title>violence: C=0.4, N=1, K=1</title></circle><circle cx="70.0" cy="448.9" r="16" fill="#2563eb" fill-opacity="0.45"><title>violence: C=0.4, N=3, K=1</title></circle><circle cx="70.0" cy="447.7" r="16" fill="#2563eb" fill-opacity="0.45"><title>violence: C=0.4, N=5, K=1</title></circle><circle cx="70.0" cy="428.6" r="11" fill="#2563eb" fill-opacity="0.45"><title>violence: C=0.4, N=10, K=1</title></circle><circle cx="70.0" cy="450.0" r="16" fill="#2563eb" fill-opacity="0.45"><title>violence: C=0.4, N=1, K=3</title></circle><circle cx="70.0" cy="448.9" r="16" fill="#2563eb" fill-opacity="0.45"><title>violence: C=0.4, N=3, K=3</title></circle><circle cx="70.0" cy="447.7" r="16" fill="#2563eb" fill-opacity="0.45"><title>violence: C=0.4, N=5, K=3</title></circle><circle cx="70.0" cy="428.6" r="10" fill="#2563eb" fill-opacity="0.45"><title>violence: C=0.4, N=10, K=3</title></circle><circle cx="70.0" cy="450.0" r="16" fill="#2563eb" fill-opacity="0.45"><title>violence: C=0.55, N=1, K=1</title></circle><circle cx="70.0" cy="431.4" r="16" fill="#2563eb" fill-opacity="0.45"><title>violence: C=0.55, N=3, K=1</title></circle><circle cx="70.0" cy="425.8" r="13" fill="#2563eb" fill-opacity="0.45"><title>violence: C=0.55, N=5, K=1</title></circle><circle cx="70.0" cy="341.8" r="8" fill="#2563eb" fill-opacity="0.45"><title>violence: C=0.55, N=10, K=1</title></circle><circle cx="70.0" cy="450.0" r="16" fill="#2563eb" fill-opacity="0.45"><title>violence: C=0.55, N=1, K=3</title></circle><circle cx="70.0" cy="431.4" r="16" fill="#2563eb" fill-opacity="0.45"><title>violence: C=0.55, N=3, K=3</title></circle><circle cx="70.0" cy="425.8" r="11" fill="#2563eb" fill-opacity="0.45"><title>violence: C=0.55, N=5, K=3</title></circle><circle cx="70.0" cy="341.8" r="8" fill="#2563eb" fill-opacity="0.45"><title>violence: C=0.55, N=10, K=3</title></circle><circle cx="70.0" cy="432.0" r="16" fill="#2563eb" fill-opacity="0.45"><title>violence: C=0.7, N=1, K=1</title></circle><circle cx="70.0" cy="426.9" r="14" fill="#2563eb" fill-opacity="0.45"><title>violence: C=0.7, N=3, K=1</title></circle><circle cx="70.0" cy="425.8" r="11" fill="#2563eb" fill-opacity="0.45"><title>violence: C=0.7, N=5, K=1</title></circle><circle cx="70.0" cy="70.0" r="4" fill="#2563eb" fill-opacity="0.45"><title>violence: C=0.7, N=10, K=1</title></circle><circle cx="70.0" cy="432.0" r="16" fill="#2563eb" fill-opacity="0.45"><title>violence: C=0.7, N=1, K=3</title></circle><circle cx="70.0" cy="426.9" r="13" fill="#2563eb" fill-opacity="0.45"><title>violence: C=0.7, N=3, K=3</title></circle><circle cx="70.0" cy="425.8" r="11" fill="#2563eb" fill-opacity="0.45"><title>violence: C=0.7, N=5, K=3</title></circle><circle cx="70.0" cy="70.0" r="4" fill="#2563eb" fill-opacity="0.45"><title>violence: C=0.7, N=10, K=3</title></circle><text x="830" y="480" text-anchor="end" font-family="sans-serif" font-size="12">Circle size indicates duplicate triggers</text></svg>
